<?xml version="1.0" encoding="utf-8"?>
<!-- Generator: Adobe Illustrator 27.1.1, SVG Export Plug-In . SVG Version: 6.00 Build 0)  -->
<svg version="1.1" id="Layer_1" xmlns="http://www.w3.org/2000/svg" xmlns:xlink="http://www.w3.org/1999/xlink" x="0px" y="0px"
	 viewBox="0 0 232.72 95.13" style="enable-background:new 0 0 232.72 95.13;" xml:space="preserve">
<style type="text/css">
	.st0{fill:#302b63;}
</style>
<g>
	<g>
		<g>
			<g>
				<g>
					<g>
						<path class="st0" d="M3.67,73.82v-8.36h2.71c1.36,0,2.43-0.41,3.2-1.24c0.77-0.82,1.16-1.89,1.16-3.2V21.95h9.83v39.5
							c0,3.81-1.1,6.83-3.29,9.05s-5.22,3.33-9.08,3.33H3.67z"/>
					</g>
					<g>
						<path class="st0" d="M15.65,16.45c-1.75,0-3.27-0.65-4.55-1.93s-1.92-2.8-1.92-4.55S9.82,6.7,11.1,5.42
							c1.28-1.28,2.8-1.92,4.55-1.92c1.81,0,3.34,0.64,4.6,1.92c1.26,1.29,1.88,2.8,1.88,4.55s-0.62,3.27-1.88,4.55
							C18.99,15.8,17.45,16.45,15.65,16.45z"/>
					</g>
					<g>
						<path class="st0" d="M47.67,66.49c-4.21,0-7.87-0.84-11-2.52c-3.14-1.68-5.55-3.99-7.26-6.95c-1.71-2.96-2.56-6.28-2.56-9.98
							V21.95h9.82v25c0,2.22,0.49,4.16,1.49,5.84c0.99,1.68,2.33,2.99,4.01,3.92c1.68,0.94,3.51,1.41,5.5,1.41s3.83-0.47,5.51-1.41
							c1.68-0.94,3.01-2.25,4.01-3.92c0.99-1.68,1.49-3.62,1.49-5.84v-25h9.81v25.09c0,3.7-0.87,7.02-2.6,9.98
							c-1.73,2.96-4.14,5.27-7.25,6.95C55.53,65.65,51.88,66.49,47.67,66.49z"/>
					</g>
					<g>
						<path class="st0" d="M74.79,65.46V40.38c0-3.75,0.85-7.09,2.56-10.03c1.71-2.93,4.12-5.23,7.25-6.91
							c3.12-1.68,6.8-2.51,11.01-2.51c4.21,0,7.86,0.84,10.96,2.51c3.1,1.68,5.5,3.98,7.21,6.91c1.71,2.93,2.56,6.27,2.56,10.03
							v25.09h-9.73v-25c0-2.21-0.52-4.16-1.54-5.84c-1.02-1.68-2.38-2.99-4.05-3.92c-1.68-0.94-3.51-1.41-5.5-1.41
							c-1.94,0-3.75,0.47-5.43,1.41c-1.68,0.94-3.01,2.25-4.01,3.92c-0.99,1.68-1.49,3.63-1.49,5.84v25H74.79z"/>
					</g>
					<g>
						<path class="st0" d="M132.46,30.32v22.35c0,1.31,0.39,2.38,1.2,3.2c0.79,0.82,1.84,1.23,3.16,1.23h8.25v8.36h-10.05
							c-3.86,0-6.89-1.11-9.08-3.33c-2.19-2.22-3.29-5.23-3.29-9.05V11.03h9.82v10.92h12.6v8.36L132.46,30.32z"/>
					</g>
					<g>
						<g>
							<path class="st0" d="M228.75,30.32L205.97,57.1h22.78v8.36h-27.1c-3.37-0.03-5.55-1.32-6.57-3.86c-1-2.55-0.58-5,1.32-7.38
								l20.94-23.92h-22.8v-8.36h34.22L228.75,30.32L228.75,30.32z"/>
						</g>
					</g>
					<g>
						<g>
							<path class="st0" d="M187.5,25.28c-2.19-2.22-5.22-3.33-9.08-3.33h-16.81c-3.86,0-6.89,1.11-9.08,3.33s-3.29,5.23-3.29,9.05
								v18.77c0,3.81,1.11,6.82,3.29,9.05c2.19,2.22,5.22,3.33,9.08,3.33h16.81c3.86,0,6.89-1.11,9.08-3.33
								c2.19-2.22,3.29-5.23,3.29-9.05V34.32C190.79,30.51,189.69,27.5,187.5,25.28z M180.97,57.1h-21.91V30.32h21.91V57.1z"/>
						</g>
					</g>
				</g>
			</g>
		</g>
		<g>
			<g>
				<path class="st0" d="M81.34,90.39V75.53h-4.52v-1.71h10.89v1.71h-4.52v14.86H81.34z"/>
				<path class="st0" d="M88.68,78.41h1.76v7.18c0,2.26,1.24,3.45,3.26,3.45c2.02,0,3.28-1.21,3.28-3.47v-7.16h1.76v7.18
					c0,3.23-2.07,5.09-5.11,5.09c-2.95,0-4.95-1.78-4.95-4.92V78.41z"/>
				<path class="st0" d="M111.1,90.39V78.41h1.76v2.02c0.57-1.33,1.76-2.21,3.38-2.21c1.71,0,2.88,0.78,3.52,2.38
					c0.74-1.59,2.02-2.38,3.83-2.38c2.45,0,3.99,1.78,3.99,4.52v7.66h-1.76v-7.28c0-2-1-3.26-2.71-3.26s-2.95,1.38-2.95,3.38v7.16
					h-1.76v-7.28c0-2.02-0.98-3.26-2.66-3.26c-1.64,0-2.88,1.38-2.88,3.38v7.16H111.1z"/>
				<path class="st0" d="M139.96,80.19v-1.78h1.76v11.98h-1.76v-1.78c-0.69,1.21-2.09,2.14-4.26,2.14c-1.69,0-3.14-0.59-4.3-1.81
					c-1.17-1.21-1.76-2.73-1.76-4.54s0.59-3.31,1.76-4.52c1.17-1.21,2.62-1.83,4.3-1.83C137.87,78.05,139.27,78.98,139.96,80.19z
					 M138.89,87.78c0.86-0.9,1.28-2.02,1.28-3.38s-0.43-2.47-1.28-3.35c-0.83-0.9-1.9-1.36-3.19-1.36c-1.24,0-2.26,0.45-3.09,1.36
					c-0.81,0.88-1.21,2-1.21,3.35s0.4,2.47,1.21,3.38c0.83,0.88,1.85,1.33,3.09,1.33C136.99,89.11,138.06,88.66,138.89,87.78z"/>
				<path class="st0" d="M144.43,90.39V73.82h1.76v16.57H144.43z"/>
				<path class="st0" d="M148.95,90.39V73.82h1.76v16.57H148.95z"/>
				<g>
					<g>
						<path class="st0" d="M173.48,79.91c1.31,1.21,1.95,2.71,1.95,4.49s-0.64,3.28-1.95,4.52c-1.31,1.21-2.88,1.83-4.71,1.83
							c-1.86,0-3.42-0.62-4.73-1.83c-1.28-1.24-1.93-2.73-1.93-4.52s0.64-3.28,1.93-4.49c1.31-1.24,2.88-1.86,4.73-1.86
							C170.6,78.05,172.17,78.67,173.48,79.91z M166.56,86.64c0.59,0.59,1.33,0.9,2.21,0.9s1.62-0.31,2.21-0.9
							c0.59-0.62,0.9-1.36,0.9-2.24c0-0.88-0.31-1.62-0.9-2.21c-0.59-0.62-1.33-0.93-2.21-0.93s-1.62,0.31-2.21,0.93
							c-0.59,0.59-0.9,1.33-0.9,2.21C165.66,85.28,165.97,86.04,166.56,86.64z"/>
					</g>
				</g>
				<g>
					<g>
						<path class="st0" d="M177.28,90.39V78.41h3.54v1.5c0.5-1.05,1.86-1.76,3.5-1.76c2.92,0,4.59,1.86,4.59,4.97v7.28h-3.54v-6.85
							c0-1.4-0.78-2.26-2.19-2.26c-1.35,0-2.35,0.98-2.35,2.38v6.73H177.28z"/>
					</g>
				</g>
				<g>
					<g>
						<path class="st0" d="M191.17,90.39V73.82h3.54v16.57H191.17z"/>
					</g>
				</g>
				<g>
					<g>
						<path class="st0" d="M198.84,73.37c1.12,0,2.02,0.88,2.02,2.02c0,1.12-0.9,2-2.02,2s-2.02-0.88-2.02-2
							C196.82,74.25,197.73,73.37,198.84,73.37z M197.09,90.39V78.41h3.54v11.98H197.09z"/>
					</g>
				</g>
				<g>
					<g>
						<path class="st0" d="M203,90.39V78.41h3.54v1.5c0.5-1.05,1.86-1.76,3.5-1.76c2.92,0,4.59,1.86,4.59,4.97v7.28h-3.54v-6.85
							c0-1.4-0.78-2.26-2.19-2.26c-1.35,0-2.35,0.98-2.35,2.38v6.73H203z"/>
					</g>
				</g>
				<g>
					<g>
						<path class="st0" d="M216.37,84.38c0-1.88,0.59-3.38,1.78-4.52c1.21-1.17,2.73-1.74,4.57-1.74c1.78,0,3.26,0.59,4.38,1.76
							c1.12,1.16,1.69,2.59,1.69,4.3c0,0.4-0.02,0.81-0.07,1.17h-8.8c0.07,1.43,1.28,2.33,3.16,2.33c1.71,0,3.14-0.38,4.26-1.17
							v3.09c-1.14,0.74-2.62,1.09-4.45,1.09c-1.95,0-3.52-0.57-4.73-1.69c-1.19-1.14-1.78-2.64-1.78-4.52V84.38z M225.21,83.05
							c0-1.07-1.09-1.97-2.5-1.97c-0.74,0-1.38,0.19-1.93,0.57c-0.55,0.38-0.83,0.86-0.86,1.4H225.21z"/>
					</g>
				</g>
			</g>
		</g>
	</g>
</g>
</svg>
